<?xml version="1.0" standalone="no"?>
<!DOCTYPE svg PUBLIC "-//W3C//DTD SVG 20010904//EN"
 "http://www.w3.org/TR/2001/REC-SVG-20010904/DTD/svg10.dtd">
<svg version="1.0" xmlns="http://www.w3.org/2000/svg"
 width="253.000000pt" height="253.000000pt" viewBox="0 0 253.000000 253.000000"
 preserveAspectRatio="xMidYMid meet">
<metadata>
Created by potrace 1.11, written by Peter Selinger 2001-2013
</metadata>
<g transform="translate(0.000000,253.000000) scale(0.100000,-0.100000)"
fill="#000000" stroke="none">
<path d="M986 2471 c-6 -8 -9 -41 -21 -176 -2 -33 -7 -87 -10 -120 -5 -58 -7
-88 -21 -255 -3 -41 -7 -91 -9 -110 -2 -19 -7 -73 -10 -120 -4 -47 -8 -98 -10
-115 -2 -16 -7 -72 -10 -122 -6 -80 -5 -94 9 -99 8 -3 102 17 208 46 282 75
273 72 272 106 -1 16 -8 43 -15 59 -6 17 -13 35 -15 40 -1 6 -25 71 -54 145
-29 74 -53 140 -54 145 -2 6 -7 21 -13 35 -6 14 -23 59 -38 100 -14 41 -33 91
-40 110 -8 19 -37 98 -66 175 -28 77 -55 146 -61 153 -12 14 -34 16 -42 3z"/>
<path d="M2345 1474 c-27 -8 -59 -16 -70 -18 -11 -2 -87 -22 -168 -45 -81 -22
-158 -43 -170 -45 -99 -21 -192 -55 -195 -70 -4 -20 46 -165 64 -185 10 -11
22 -8 76 22 35 19 83 46 108 60 25 14 88 49 141 79 52 30 102 58 110 62 8 4
23 12 34 19 11 7 50 29 86 49 69 39 85 58 66 77 -13 13 -18 13 -82 -5z"/>
<path d="M1449 1236 c-2 -2 -80 -24 -174 -49 -347 -92 -398 -106 -407 -115
-10 -10 -13 -28 -23 -152 -4 -47 -8 -101 -10 -120 -13 -133 -16 -238 -7 -244
9 -5 79 28 187 89 22 13 151 85 288 162 136 76 256 146 266 155 19 16 19 19
-26 135 -25 65 -50 124 -56 131 -9 12 -29 16 -38 8z"/>
<path d="M320 937 c-214 -59 -225 -63 -225 -86 0 -22 20 -32 224 -117 199 -82
249 -97 252 -75 0 3 2 15 4 26 7 36 18 179 19 245 1 62 0 65 -24 67 -14 1
-126 -26 -250 -60z"/>
<path d="M1625 706 c-11 -7 -40 -24 -65 -38 -25 -14 -142 -79 -260 -145 -288
-161 -306 -171 -370 -206 -64 -35 -72 -45 -59 -68 8 -16 44 -18 489 -19 449 0
480 1 488 17 7 13 -14 79 -76 246 -74 198 -88 227 -106 227 -12 0 -30 -6 -41
-14z"/>
</g>
</svg>
